<?xml version="1.0" encoding="UTF-8"?>
<svg id="Layer_1" xmlns="http://www.w3.org/2000/svg" version="1.1" viewBox="0 0 579.04 586.33">
  <!-- Generator: Adobe Illustrator 30.3.0, SVG Export Plug-In . SVG Version: 2.1.3 Build 182)  -->
  <defs>
    <style>
      .st0 {
        fill: #231f20;
      }

      .st1 {
        fill: #fff200;
      }
    </style>
  </defs>
  <circle class="st1" cx="288.63" cy="292.71" r="271.87"/>
  <g>
    <path class="st0" d="M248.91,323.69c0,35.3-27.36,58.53-70.89,58.53h-93.24v-205.89h92.95c34.71,0,56.47,18.53,56.47,50,0,22.06-10.59,37.36-28.53,44.41,27.35,7.06,43.24,25.89,43.24,52.94ZM177.72,193.39h-74.42v70.59h74.71c22.94,0,36.77-13.83,36.77-35.59s-14.12-35-37.06-35ZM229.49,323.1c0-25.59-18.82-42.06-50.3-42.06h-75.89v84.12h74.42c32.06,0,51.77-15.59,51.77-42.06Z"/>
    <path class="st0" d="M145.09,435.46c0-6.47,5.59-12.06,12.35-12.06,16.47,0,8.82,31.77,47.36,31.77,23.53,0,55-11.47,74.42-33.53,16.77-19.12,19.12-40.3,19.12-71.47,0-43.83-8.24-105.89-30.59-105.89-7.94,0-14.71,6.76-17.94,22.65l-4.41-2.35c3.23-20.29,12.35-34.71,27.06-34.71,29.41,0,41.18,62.65,41.18,120.3,0,20-2.06,32.65-3.23,39.12l2.94,1.18c22.06-29.42,45.88-74.42,45.88-108.24,0-30.88-20-29.41-20-42.36,0-6.47,4.71-10,10-10,8.83,0,19.71,9.12,19.71,35.3,0,37.06-21.18,88.54-51.77,128.54-32.36,42.06-73.53,67.06-116.18,67.06-27.94,0-55.89-10.59-55.89-25.3Z"/>
    <path d="M394.22,171.92h18.24v131.48l75.59-73.24h23.24l-58.24,55,65.3,97.07h-21.18l-56.77-85.3-27.94,26.76v58.53h-18.24v-210.31Z"/>
  </g>
</svg>